<?xml version="1.0" standalone="no"?>
<!DOCTYPE svg PUBLIC "-//W3C//DTD SVG 20010904//EN"
 "http://www.w3.org/TR/2001/REC-SVG-20010904/DTD/svg10.dtd">
<svg version="1.0" xmlns="http://www.w3.org/2000/svg"
 width="320.000000pt" height="320.000000pt" viewBox="0 0 320.000000 320.000000"
 preserveAspectRatio="xMidYMid meet">
<metadata>
Created by potrace 1.14, written by Peter Selinger 2001-2017
</metadata>
<g transform="translate(0.000000,320.000000) scale(0.100000,-0.100000)"
fill="#000000" stroke="none">
<path d="M1571 2993 c-13 -38 -29 -79 -34 -93 -6 -14 -11 -31 -13 -38 -1 -7
-12 -36 -23 -65 -11 -28 -34 -91 -52 -138 l-31 -85 -81 -19 c-45 -10 -87 -20
-93 -21 -7 -1 -45 -10 -85 -19 -100 -23 -95 -22 -174 -39 -38 -8 -139 -31
-223 -50 -83 -20 -166 -38 -184 -41 -17 -3 -34 -7 -37 -9 -3 -2 -22 -7 -41
-10 -88 -15 -95 -19 -94 -62 2 -48 12 -217 19 -299 3 -33 7 -94 10 -135 9
-130 14 -203 20 -275 4 -38 8 -101 10 -140 2 -38 7 -97 10 -130 3 -33 7 -98
10 -145 3 -47 8 -104 10 -128 4 -40 0 -47 -58 -115 -34 -41 -77 -92 -95 -115
-44 -53 -68 -82 -90 -107 -46 -51 -52 -50 113 -20 44 8 94 17 110 20 17 3 41
7 55 9 14 3 68 12 120 21 52 9 104 18 115 21 18 5 66 -27 150 -98 11 -9 52
-42 90 -73 39 -31 79 -64 90 -74 11 -9 54 -43 95 -76 41 -32 77 -61 80 -65 3
-3 39 -32 80 -65 106 -85 109 -87 144 -116 17 -14 48 -38 68 -53 l37 -28 33
23 c18 13 35 26 38 29 3 3 39 33 80 65 41 33 77 62 80 66 3 3 75 61 160 129
85 68 182 146 216 174 33 28 78 65 99 81 22 17 53 42 70 57 31 27 39 28 115
14 39 -7 128 -23 178 -31 47 -7 84 -14 112 -20 14 -3 41 -8 60 -11 44 -7 66
-11 108 -20 35 -7 39 -3 20 18 -13 13 -105 123 -122 144 -5 7 -20 25 -35 42
-14 16 -33 38 -41 49 -8 10 -27 33 -41 50 -22 27 -26 40 -23 80 7 101 13 191
19 273 3 47 8 108 10 135 3 28 7 86 10 130 3 44 8 114 11 155 28 365 37 495
38 550 1 42 0 44 -34 52 -19 4 -46 10 -60 13 -14 4 -34 8 -45 10 -11 2 -29 6
-40 9 -40 10 -251 58 -270 62 -11 2 -29 6 -40 8 -11 3 -69 17 -130 31 -60 14
-173 39 -250 57 -77 17 -143 35 -146 40 -3 5 -17 42 -30 81 -13 40 -27 75 -32
78 -5 3 -8 9 -7 13 3 10 -104 306 -110 306 -3 0 -16 -30 -29 -67z"/>
</g>
</svg>
