<svg width="288" height="196" viewBox="0 0 288 196" fill="none" xmlns="http://www.w3.org/2000/svg">
<line x1="19.8072" y1="97.0994" x2="268.193" y2="97.0994" stroke="#DFDFDF"/>
<g clip-path="url(#clip0_20_64)">
<circle cx="233.193" cy="52" r="35" fill="url(#paint0_radial_20_64)"/>
</g>
<g clip-path="url(#clip1_20_64)">
<path d="M179 52C179 47.4037 178.095 42.8525 176.336 38.6061C174.577 34.3597 171.999 30.5013 168.749 27.2513C165.499 24.0012 161.64 21.4231 157.394 19.6642C153.148 17.9053 148.596 17 144 17L144 52H179Z" fill="#72E06A"/>
<path d="M144 17C139.404 17 134.852 17.9053 130.606 19.6642C126.36 21.4231 122.501 24.0012 119.251 27.2513C116.001 30.5013 113.423 34.3597 111.664 38.6061C109.905 42.8525 109 47.4037 109 52L144 52L144 17Z" fill="#7E84FA"/>
<path d="M109 52C109 56.5963 109.905 61.1475 111.664 65.3939C113.423 69.6403 116.001 73.4987 119.251 76.7487C122.501 79.9988 126.36 82.5769 130.606 84.3358C134.852 86.0947 139.404 87 144 87L144 52L109 52Z" fill="#DE3D82"/>
<path d="M144 87C148.596 87 153.148 86.0947 157.394 84.3358C161.64 82.5769 165.499 79.9988 168.749 76.7487C171.999 73.4987 174.577 69.6403 176.336 65.3939C178.095 61.1475 179 56.5963 179 52L144 52L144 87Z" fill="#F68511"/>
</g>
<g clip-path="url(#clip2_20_64)">
<circle cx="54.8072" cy="52" r="35" fill="url(#paint1_linear_20_64)"/>
</g>
<rect x="52.5747" y="146.736" width="14.0003" height="31.4642" fill="black"/>
<rect x="108.736" y="108.198" width="14.0003" height="70.0016" fill="black"/>
<rect x="71.2952" y="111.604" width="14.0003" height="66.5958" fill="black"/>
<rect x="90.0158" y="127.897" width="14.0003" height="50.3032" fill="black"/>
<path d="M195.425 108.2L225.736 125.7V160.7L195.425 178.2L165.114 160.7V125.7L195.425 108.2Z" fill="black"/>
<defs>
<radialGradient id="paint0_radial_20_64" cx="0" cy="0" r="1" gradientUnits="userSpaceOnUse" gradientTransform="translate(233.193 52) rotate(90) scale(35)">
<stop stop-color="#54E062"/>
<stop offset="0.901042" stop-color="#1DB954"/>
</radialGradient>
<linearGradient id="paint1_linear_20_64" x1="54.8072" y1="17" x2="54.8072" y2="87" gradientUnits="userSpaceOnUse">
<stop stop-color="#FF0000"/>
<stop offset="0.546875" stop-color="#DC2378"/>
<stop offset="1" stop-color="#AD00FF"/>
</linearGradient>
<clipPath id="clip0_20_64">
<rect width="70" height="70" fill="white" transform="translate(198.193 17)"/>
</clipPath>
<clipPath id="clip1_20_64">
<rect width="70" height="70" fill="white" transform="translate(109 17)"/>
</clipPath>
<clipPath id="clip2_20_64">
<rect width="70" height="70" fill="white" transform="translate(19.8072 17)"/>
</clipPath>
</defs>
</svg>
